<svg width="29" height="29" viewBox="0 0 29 29" fill="none" xmlns="http://www.w3.org/2000/svg">
<path d="M28.213 0.84186C28.7851 1.2201 29.0853 1.87391 28.9776 2.52772L25.3526 25.0059C25.2677 25.53 24.9335 25.9893 24.4464 26.2487C23.9593 26.508 23.3759 26.5404 22.8605 26.3351L15.7067 23.4983L13.4355 27.5239C13.1409 28.048 12.5122 28.3128 11.9062 28.1669C11.3001 28.021 10.8753 27.5022 10.8753 26.9079V21.7206C10.8753 21.4342 10.9773 21.1532 11.1642 20.9263L20.5269 9.43867C20.6685 9.05503 20.1587 8.66599 19.7905 8.98479L9.65186 17.7329L7.83936 19.2945C7.31827 19.743 6.57628 19.8672 5.92491 19.6079L1.11046 17.6951C0.476082 17.4411 0.0456136 16.8684 0.00596516 16.2091C-0.0336833 15.5499 0.317489 14.9285 0.917879 14.5989L26.2929 0.766212C26.8989 0.436604 27.6466 0.469025 28.2187 0.84186H28.213Z" fill="white"/>
</svg>
